<?xml version="1.0" encoding="UTF-8"?>
<svg xmlns="http://www.w3.org/2000/svg" viewBox="87 -34 265 265">
  <path fill="#150e34" d="
    M87.25,0v30.87h13.07V13.07h17.8V0h-30.87Z
    M199.36,0v13.07h17.8v17.8h13.06V0h-30.86Z
    M338.22,64.76v-28.91h-22.96v28.91h-5.83v22.96h5.83v109.95h22.96v-109.95h14.44v-22.96h-14.44Z
    M287.22,84.69c-11.96-11.93-28.47-19.3-46.7-19.3-36.52,0-66.13,29.61-66.13,66.16s29.61,66.12,66.13,66.12h34.58v-22.95h-34.58c-23.84-.01-43.17-19.34-43.17-43.18s19.33-43.17,43.18-43.17,43.17,19.33,43.17,43.17h0s0,.01,0,.01v66.12h22.96v-66.35c-.06-18.22-7.48-34.71-19.45-46.63Z
    M157.89,8.58c-36.54,0-66.15,29.64-66.15,66.16s29.61,66.12,66.15,66.12c2.91,0,5.78-.19,8.59-.56-.33-2.88-.51-5.8-.51-8.77,0-5.02.5-9.93,1.45-14.68-3.07.68-6.26,1.05-9.53,1.05-23.85,0-43.19-19.31-43.19-43.16s19.34-43.17,43.19-43.17c21.76,0,39.73,16.07,42.71,36.99,6.58-4.18,13.85-7.35,21.6-9.31-6.97-29.06-33.11-50.67-64.31-50.67Z
  "/>
</svg>
