<?xml version="1.0" encoding="UTF-8"?>
<svg id="Layer_2" data-name="Layer 2" xmlns="http://www.w3.org/2000/svg" viewBox="0 0 352.66 197.94">
  <defs>
    <style>
      .cls-1 {
        fill: #150e34;
        stroke-width: 0px;
      }
    </style>
  </defs>
  <g id="Layer_1-2" data-name="Layer 1">
    <path class="cls-1" d="m183.01,186.15c0-6.92-4.68-11.7-11.17-11.7s-11.26,4.87-11.26,11.7,4.91,11.74,12.1,11.74c3.63,0,6.83-1.31,8.89-3.76l-1.75-2.02c-1.76,2.02-4.25,3.03-7.06,3.03-5.04,0-8.72-3.2-9.07-8.02h19.28c0-.35.04-.7.04-.97Zm-19.32-1.36c.4-4.51,3.68-7.66,8.15-7.66s7.8,3.15,8.2,7.66h-16.35Zm-8.72-10.16l-8.72,19.63-8.64-19.63h-3.24l10.21,23.05h3.2l10.25-23.05h-3.06Zm-29.23,0v23.05h3.11v-23.05h-3.11Zm1.58-9.47c-1.28,0-2.28,1.01-2.28,2.19s1,2.24,2.28,2.24,2.27-1.01,2.27-2.28c0-1.18-1-2.15-2.27-2.15Zm-9.47,28.88c-.88.79-2.15,1.18-3.42,1.18-2.59,0-3.99-1.49-3.99-4.2v-13.76h7.01v-2.63h-7.01v-5.04h-3.11v5.04h-4.12v2.63h4.12v13.93c0,4.25,2.41,6.7,6.75,6.7,1.79,0,3.63-.52,4.86-1.62l-1.09-2.23Zm-29.98-19.59c-3.64,0-7.06,1.14-9.38,3.11l1.4,2.33c1.89-1.67,4.69-2.72,7.67-2.72,4.29,0,6.53,2.15,6.53,6.09v1.4h-7.32c-6.61,0-8.89,2.98-8.89,6.53,0,3.99,3.2,6.7,8.41,6.7,3.81,0,6.53-1.44,7.93-3.81v3.6h2.98v-14.29c0-5.96-3.37-8.94-9.33-8.94Zm6.22,16.3c-1.23,3.03-3.81,4.69-7.32,4.69s-5.83-1.66-5.83-4.34c0-2.36,1.45-4.12,5.92-4.12h7.23v3.77Zm-21.13-4.6c0-6.92-4.68-11.7-11.17-11.7s-11.26,4.87-11.26,11.7,4.91,11.74,12.09,11.74c3.64,0,6.84-1.31,8.9-3.76l-1.76-2.02c-1.75,2.02-4.25,3.03-7.05,3.03-5.04,0-8.72-3.2-9.07-8.02h19.28c0-.35.04-.7.04-.97Zm-19.32-1.36c.39-4.51,3.68-7.66,8.15-7.66s7.8,3.15,8.19,7.66h-16.34Zm-15.95-5.65v-4.51h-2.98v23.05h3.11v-11.75c0-5.43,2.93-8.5,7.75-8.5.22,0,.48.05.75.05v-3.03c-4.25,0-7.19,1.62-8.63,4.69Zm-21.53,15.91c-7.4,0-12.97-5.44-12.97-12.71s5.57-12.71,12.97-12.71c3.51,0,6.58,1.1,9.07,3.64l2.06-2.06c-2.71-2.98-6.74-4.47-11.21-4.47-9.25,0-16.08,6.62-16.08,15.6s6.83,15.6,16.03,15.6c4.52,0,8.55-1.53,11.26-4.51l-2.06-2.06c-2.49,2.58-5.56,3.68-9.07,3.68ZM87.25,0v30.87h13.07V13.07h17.8V0h-30.87Zm112.11,0v13.07h17.8v17.8h13.06V0h-30.86Zm138.86,64.76v-28.91h-22.96v28.91h-5.83v22.96h5.83v109.95h22.96v-109.95h14.44v-22.96h-14.44Zm-51,19.93c-11.96-11.93-28.47-19.3-46.7-19.3-36.52,0-66.13,29.61-66.13,66.16s29.61,66.12,66.13,66.12h34.58v-22.95h-34.58c-23.84-.01-43.17-19.34-43.17-43.18s19.33-43.17,43.18-43.17,43.17,19.33,43.17,43.17h0s0,.01,0,.01v66.12h22.96v-66.35c-.06-18.22-7.48-34.71-19.45-46.63ZM157.89,8.58c-36.54,0-66.15,29.64-66.15,66.16s29.61,66.12,66.15,66.12c2.91,0,5.78-.19,8.59-.56-.33-2.88-.51-5.8-.51-8.77,0-5.02.5-9.93,1.45-14.68-3.07.68-6.26,1.05-9.53,1.05-23.85,0-43.19-19.31-43.19-43.16s19.34-43.17,43.19-43.17c21.76,0,39.73,16.07,42.71,36.99,6.58-4.18,13.85-7.35,21.6-9.31-6.97-29.06-33.11-50.67-64.31-50.67Z"/>
  </g>
</svg>